Coordinates
version=1
nRows=24
nColumns=24
inDegrees=yes

Units are S.I. units (second, meters, Newtons, ...)
Angles are in degrees.

endheader
time	pelvis_tilt	pelvis_list	pelvis_rotation	pelvis_tx	pelvis_ty	pelvis_tz	hip_flexion_r	hip_adduction_r	hip_rotation_r	knee_angle_r	ankle_angle_r	subtalar_angle_r	mtp_angle_r	hip_flexion_l	hip_adduction_l	hip_rotation_l	knee_angle_l	ankle_angle_l	subtalar_angle_l	mtp_angle_l	lumbar_extension	lumbar_bending	lumbar_rotation
      3.68000000	     -1.01516208	      3.81053659	      6.31521735	     -1.49929678	      0.90850350	      0.21031240	     32.20335933	     -3.04813027	     -6.37216972	    -16.16027754	     11.03108116	     -6.27416629	      0.00000000	    -13.16181032	      7.86784629	      8.45025686	    -20.07178701	     26.62894676	     -7.61579894	      0.00000000	    -12.17165839	     -2.23487706	    -18.02940147
      3.68500000	     -0.93307705	      3.59793586	      6.38382106	     -1.49091542	      0.90747708	      0.21073335	     32.21222251	     -2.82757877	     -6.58076046	    -16.98520672	     10.35205692	     -6.81147581	      0.00000000	    -13.16098269	      7.47151572	      7.86716791	    -21.20704997	     26.51203769	     -6.78478792	      0.00000000	    -12.10577133	     -1.96893707	    -18.06465152
      3.69000000	     -0.88806296	      3.33058288	      6.33363630	     -1.48247637	      0.90641606	      0.21141580	     32.27742809	     -2.47698603	     -6.57650768	    -17.84932864	      9.49253945	     -7.48285899	      0.00000000	    -13.03296789	      7.00370765	      6.94748948	    -22.46870624	     26.40288004	     -5.72194226	      0.00000000	    -11.97960543	     -1.67857232	    -17.95794438
      3.69500000	     -0.86682934	      3.02712415	      6.26747275	     -1.47404628	      0.90543301	      0.21214712	     32.37708425	     -2.08151273	     -6.52089607	    -18.75352972	      8.51602091	     -8.20559169	      0.00000000	    -12.82015465	      6.49536603	      6.04987200	    -23.81941986	     26.15730552	     -4.71060117	      0.00000000	    -11.82141567	     -1.34777994	    -17.84236935
      3.70000000	     -0.86162460	      2.68854027	      6.16465670	     -1.46563432	      0.90450741	      0.21295154	     32.51587039	     -1.63117903	     -6.39552061	    -19.71129181	      7.49849631	     -8.93857368	      0.00000000	    -12.51869472	      5.94505812	      5.10880227	    -25.27944362	     25.79342029	     -3.72149265	      0.00000000	    -11.64608809	     -0.98495801	    -17.67071673
      3.70500000	     -0.87295722	      2.31632188	      6.03795138	     -1.45724646	      0.90365190	      0.21382044	     32.69535316	     -1.12906545	     -6.20190851	    -20.72534616	      6.47666552	     -9.68865354	      0.00000000	    -12.12993289	      5.35213976	      4.16288910	    -26.84392564	     25.29670401	     -2.77589945	      0.00000000	    -11.45323289	     -0.59081797	    -17.47605938
      3.71000000	     -0.90567155	      1.90407540	      5.88634779	     -1.44886345	      0.90288325	      0.21472642	     32.91778237	     -0.57494231	     -5.97999948	    -21.78727526	      5.47015799	    -10.39694362	      0.00000000	    -11.65540838	      4.70784953	      3.21167918	    -28.49934966	     24.66146301	     -1.84613086	      0.00000000	    -11.23173153	     -0.15410895	    -17.25605138
      3.71500000	     -0.94878137	      1.50197770	      5.70326576	     -1.44055823	      0.90215584	      0.21573878	     33.16775164	      0.02452068	     -5.54689805	    -22.88907807	      4.48851203	    -11.25544841	      0.00000000	    -11.10155325	      4.06894794	      2.28044536	    -30.25574484	     23.86877575	     -1.02151941	      0.00000000	    -11.01604309	      0.26162404	    -17.03520048
      3.72000000	     -0.99665133	      1.05652152	      5.52496316	     -1.43221218	      0.90150729	      0.21673921	     33.43190011	      0.65460688	     -5.21915062	    -24.02824318	      3.67053736	    -11.95240902	      0.00000000	    -10.47738285	      3.36705600	      1.38654672	    -32.11137668	     22.93863532	     -0.22394324	      0.00000000	    -10.78400248	      0.72883743	    -16.79551582
      3.72500000	     -1.03432808	      0.57080867	      5.33815789	     -1.42383380	      0.90090478	      0.21772601	     33.68825170	      1.32809658	     -4.93124513	    -25.19177879	      3.04442331	    -12.53034311	      0.00000000	     -9.80714071	      2.61354988	      0.53228615	    -34.04971872	     21.88871118	      0.48810158	      0.00000000	    -10.55875528	      1.24892647	    -16.52050772
      3.73000000	     -1.07995121	      0.10322898	      5.14062718	     -1.41549745	      0.90036838	      0.21880209	     33.92707788	      2.02462663	     -4.54328966	    -26.31633090	      2.48392077	    -13.19680001	      0.00000000	     -9.07197961	      1.86511557	     -0.26890026	    -36.05843020	     20.66372540	      1.11108727	      0.00000000	    -10.33669534	      1.73394115	    -16.27461806
      3.73500000	     -1.10438416	     -0.37072911	      4.93972966	     -1.40716614	      0.89990576	      0.21984932	     34.11560577	      2.73032402	     -4.21020040	    -27.40409381	      2.12395442	    -13.76118115	      0.00000000	     -8.31091368	      1.10577884	     -1.00374007	    -38.12097113	     19.29697871	      1.60145806	      0.00000000	    -10.14355160	      2.23141228	    -16.02674913
      3.74000000	     -1.14156653	     -0.82434180	      4.73997330	     -1.39887336	      0.89947214	      0.22100643	     34.27727292	      3.44358594	     -3.85691859	    -28.42663412	      1.88277163	    -14.38218987	      0.00000000	     -7.48576727	      0.34457522	     -1.69655603	    -40.23148883	     17.81275535	      2.01829965	      0.00000000	     -9.94595158	      2.68583728	    -15.81005333
      3.74500000	     -1.14997742	     -1.31148997	      4.53811418	     -1.39060428	      0.89910160	      0.22208397	     34.36964900	      4.17601440	     -3.60628724	    -29.38879821	      1.86015779	    -14.83055732	      0.00000000	     -6.65061390	     -0.44219679	     -2.30811998	    -42.36994661	     16.25784891	      2.23929524	      0.00000000	     -9.79169164	      3.19455833	    -15.55455553
      3.75000000	     -1.16103487	     -1.77758436	      4.32808919	     -1.38238440	      0.89878117	      0.22320042	     34.40783016	      4.89972055	     -3.39209815	    -30.25192924	      1.98271541	    -15.28387491	      0.00000000	     -5.77473247	     -1.21265871	     -2.87726847	    -44.51944291	     14.61716482	      2.30637242	      0.00000000	     -9.64676229	      3.67217065	    -15.33392699
      3.75500000	     -1.15020970	     -2.25342382	      4.11732148	     -1.37425806	      0.89855858	      0.22424457	     34.37222957	      5.62258270	     -3.23269485	    -31.02817767	      2.24270589	    -15.61303984	      0.00000000	     -4.88794246	     -1.97149954	     -3.34921032	    -46.66156492	     12.93016355	      2.13806700	      0.00000000	     -9.55108040	      4.17430650	    -15.07222745
      3.76000000	     -1.17250105	     -2.72055372	      3.89624584	     -1.36617696	      0.89833303	      0.22539462	     34.31353227	      6.35202720	     -3.08930543	    -31.70243002	      2.59601841	    -15.98128741	      0.00000000	     -3.93260790	     -2.73488877	     -3.81373329	    -48.79682463	     11.24487783	      1.80585697	      0.00000000	     -9.42356294	      4.64021904	    -14.82920102
      3.76500000	     -1.11268900	     -3.17057253	      3.68060464	     -1.35814956	      0.89831948	      0.22644139	     34.09664136	      7.04816114	     -3.01100247	    -32.26615436	      3.13904420	    -16.19752700	      0.00000000	     -3.05266474	     -3.45854999	     -4.20900320	    -50.86972809	      9.52837834	      1.17921607	      0.00000000	     -9.41151479	      5.10688598	    -14.58839043
      3.77000000	     -1.23062345	     -3.63463045	      3.42420243	     -1.35033543	      0.89809770	      0.22762292	     34.03496183	      7.78307199	     -2.86769892	    -32.73940853	      3.55748102	    -16.54582104	      0.00000000	     -1.92324679	     -4.19025257	     -4.58288739	    -52.97651722	      7.92941658	      0.43867763	      0.00000000	     -9.22667573	      5.56714952	    -14.30101018
      3.77500000	     -1.18941007	     -4.09160205	      3.18322876	     -1.34251627	      0.89822875	      0.22869851	     33.72783235	      8.48552570	     -2.82207550	    -33.10140363	      4.17680047	    -16.68343301	      0.00000000	     -0.97336496	     -4.90299837	     -4.90861866	    -54.97446283	      6.35245833	     -0.57408666	      0.00000000	     -9.23855950	      6.03728712	    -14.00066149
      3.78000000	     -1.31870834	     -4.51703244	      2.92261425	     -1.33489552	      0.89819929	      0.22986220	     33.57358492	      9.16891396	     -2.70090440	    -33.40266841	      4.69826803	    -16.90695922	      0.00000000	      0.20349761	     -5.55826294	     -5.17309593	    -56.95823358	      4.88831910	     -1.78313706	      0.00000000	     -9.07773192	      6.44414415	    -13.67572668
      3.78500000	     -1.30942611	     -4.98042459	      2.66341784	     -1.32727892	      0.89847510	      0.23099636	     33.20057074	      9.87729443	     -2.65053224	    -33.58521882	      5.33548910	    -16.96785382	      0.00000000	      1.22477966	     -6.26672667	     -5.44265786	    -58.84949018	      3.60729809	     -3.12137404	      0.00000000	     -9.09317719	      6.90720204	    -13.33419567
      3.79000000	     -1.43195493	     -5.36498814	      2.40291543	     -1.31982839	      0.89867578	      0.23212497	     32.94407212	     10.50764940	     -2.52281622	    -33.73490644	      5.90314515	    -17.09190616	      0.00000000	      2.41487352	     -6.84652957	     -5.61505756	    -60.68264576	      2.44801556	     -4.67163305	      0.00000000	     -8.97491218	      7.26766592	    -12.97931527
      3.79500000	     -1.45275584	     -5.80198530	      2.12961908	     -1.31237758	      0.89910117	      0.23326626	     32.53337459	     11.18607773	     -2.44027843	    -33.80834012	      6.51359707	    -17.09261185	      0.00000000	      3.48555252	     -7.49787656	     -5.79798619	    -62.43265657	      1.57007654	     -6.24086312	      0.00000000	     -8.98661517	      7.69897072	    -12.60806598
